<?xml version="1.0" standalone="no"?>
<!DOCTYPE svg PUBLIC "-//W3C//DTD SVG 20010904//EN"
 "http://www.w3.org/TR/2001/REC-SVG-20010904/DTD/svg10.dtd">
<svg version="1.0" xmlns="http://www.w3.org/2000/svg"
 width="879.000000pt" height="879.000000pt" viewBox="0 0 879.000000 879.000000"
 preserveAspectRatio="xMidYMid meet">
<metadata>
Created by potrace 1.14, written by Peter Selinger 2001-2017
</metadata>
<g transform="translate(0.000000,879.000000) scale(0.100000,-0.100000)"
fill="#000000" stroke="none">
<path d="M4119 8786 c-2 -2 -46 -7 -97 -10 -51 -4 -100 -9 -110 -10 -9 -2 -44
-7 -77 -10 -505 -56 -1093 -250 -1585 -524 -105 -58 -420 -262 -480 -310 -14
-11 -61 -49 -105 -83 -173 -136 -463 -413 -585 -558 -25 -29 -55 -65 -68 -80
-54 -62 -205 -265 -279 -376 -316 -471 -571 -1097 -658 -1610 -3 -16 -7 -41
-10 -55 -2 -13 -7 -40 -10 -60 -3 -20 -7 -47 -10 -60 -26 -133 -39 -343 -39
-630 -1 -278 3 -378 20 -502 2 -18 6 -51 9 -73 9 -87 37 -245 65 -375 276
-1288 1147 -2406 2335 -2998 296 -148 690 -291 953 -347 9 -2 49 -10 87 -19
147 -31 319 -59 455 -72 165 -16 233 -19 470 -19 233 1 386 7 470 20 14 2 48
6 75 10 102 12 131 16 180 25 28 5 64 12 80 15 70 12 98 18 250 55 211 52 468
136 612 201 23 10 45 19 48 19 8 0 114 50 235 109 739 366 1391 969 1817 1681
314 525 513 1101 588 1705 4 28 8 61 10 75 27 186 27 742 0 950 -1 14 -6 48
-9 75 -16 126 -22 161 -47 295 -41 210 -147 584 -203 715 -7 16 -33 77 -56
135 -132 320 -355 705 -569 980 -184 237 -451 517 -641 674 -52 43 -106 88
-120 99 -83 70 -456 327 -475 327 -2 0 -30 16 -61 36 -84 54 -372 196 -504
249 -63 25 -124 50 -135 55 -82 36 -471 153 -580 174 -16 4 -41 9 -55 11 -57
12 -177 35 -205 39 -16 2 -49 7 -73 11 -53 9 -81 12 -162 20 -36 4 -76 9 -90
12 -28 6 -655 14 -661 9z m506 -350 c66 -3 138 -8 160 -11 122 -15 213 -27
240 -31 677 -110 1283 -371 1835 -791 266 -202 554 -495 777 -788 384 -507
677 -1207 758 -1805 3 -25 8 -56 10 -70 11 -67 21 -170 30 -315 10 -150 3
-543 -9 -600 -3 -11 -8 -56 -11 -100 -4 -44 -9 -83 -11 -86 -1 -3 -6 -30 -9
-60 -8 -70 -58 -308 -91 -429 -116 -434 -296 -828 -555 -1216 -42 -64 -205
-283 -218 -294 -3 -3 -28 -32 -56 -65 -62 -75 -107 -123 -216 -233 -145 -147
-224 -216 -479 -415 -46 -36 -270 -181 -360 -234 -342 -198 -781 -371 -1125
-444 -33 -7 -64 -14 -70 -15 -91 -20 -267 -48 -370 -59 -33 -4 -71 -8 -85 -10
-36 -6 -272 -17 -355 -18 -80 0 -366 12 -392 17 -10 2 -52 7 -93 11 -41 4 -84
9 -95 11 -11 2 -40 7 -65 10 -25 3 -63 9 -85 14 -22 5 -53 11 -70 14 -96 18
-161 33 -270 63 -49 14 -94 26 -100 27 -20 5 -173 56 -252 85 -190 69 -455
194 -623 294 -47 27 -94 55 -105 61 -86 48 -357 245 -479 350 -356 304 -683
692 -887 1053 -10 18 -29 50 -40 70 -45 78 -158 311 -194 398 -20 50 -41 99
-46 110 -20 43 -99 286 -128 390 -27 97 -71 296 -85 380 -3 17 -7 44 -10 60
-15 94 -35 266 -41 370 -5 77 -5 467 0 530 9 106 16 183 20 210 2 17 7 53 10
80 4 28 8 57 11 65 2 8 6 38 10 65 3 27 7 52 10 56 2 4 6 24 10 44 3 21 8 47
10 59 3 11 7 32 10 46 29 142 109 399 176 570 62 155 75 184 154 343 435 876
1196 1578 2105 1945 219 89 548 188 714 216 17 2 53 9 80 14 28 6 68 13 90 16
23 4 50 8 60 10 18 3 52 8 189 22 23 3 124 7 226 11 102 3 186 6 187 7 2 1 46
0 198 -8z"/>
<path d="M2497 6818 c-13 -20 -15 -353 -13 -2430 1 -1960 3 -2409 14 -2420 9
-9 54 -13 157 -14 128 -2 146 0 161 17 15 17 16 180 16 2258 0 1815 3 2243 13
2251 15 12 2121 9 2165 -3 14 -4 49 -11 78 -17 67 -12 210 -60 287 -96 171
-80 342 -212 455 -353 19 -24 40 -49 45 -55 52 -61 137 -221 175 -330 53 -152
73 -271 72 -431 -1 -275 -89 -534 -258 -757 -145 -192 -348 -345 -572 -430
-66 -25 -54 -22 -157 -47 -44 -11 -107 -22 -140 -26 -33 -4 -76 -8 -95 -10
-54 -6 -60 -22 -60 -175 0 -162 5 -175 71 -173 69 3 175 15 244 27 227 43 473
153 672 303 84 63 240 213 288 278 17 22 32 42 36 45 20 18 119 182 160 267
50 103 112 277 123 347 3 21 8 41 10 45 2 3 7 27 10 54 3 26 9 68 12 95 11 75
7 289 -5 382 -63 456 -322 871 -706 1130 -149 101 -331 185 -496 229 -71 20
-94 25 -168 37 -18 3 -43 8 -55 12 -11 3 -584 8 -1273 9 l-1252 4 -14 -23z"/>
<path d="M3589 3559 c-19 -19 -20 -29 -15 -96 23 -288 113 -549 272 -790 189
-285 498 -523 821 -632 182 -61 319 -84 513 -85 196 -1 311 14 478 64 224 66
458 196 610 337 15 14 46 42 69 64 216 199 412 573 459 874 3 17 6 41 9 55 2
14 6 62 10 106 6 74 5 84 -14 103 -18 18 -32 20 -160 20 -166 1 -165 1 -175
-114 -31 -359 -221 -695 -515 -914 -158 -117 -380 -210 -566 -237 -70 -10
-299 -10 -365 0 -64 9 -168 33 -210 48 -8 3 -37 14 -65 23 -74 25 -231 111
-300 162 -70 53 -164 141 -218 203 -174 205 -281 460 -302 725 -9 104 -11 105
-177 105 -127 0 -140 -2 -159 -21z"/>
</g>
</svg>
